<svg width="224" height="276" viewBox="0 0 224 276" fill="none" xmlns="http://www.w3.org/2000/svg">
<path d="M86.0898 65.3736C84.8238 65.3476 83.1128 65.0806 82.0088 65.8276C81.6808 66.0496 81.5888 66.3876 81.6468 66.6976C80.0948 68.5026 79.3978 71.3386 81.1028 73.2786C82.7508 75.1536 86.4928 75.9286 88.4688 74.2056C90.3018 72.6076 91.1188 68.7046 89.2208 66.8516C88.4428 66.0926 87.1798 65.3956 86.0898 65.3736ZM87.7118 72.5286C86.4508 73.9856 83.5798 73.5976 82.3688 72.1506C81.0128 70.5296 82.1968 68.2826 83.5748 67.1546C83.6358 67.1046 83.6828 67.0516 83.7228 66.9976C84.9028 66.8326 86.5818 67.1876 87.2868 67.5706C89.0248 68.5166 88.9518 71.0956 87.7118 72.5286Z" fill="#142A1E"/>
<path d="M138.173 65.6123C137.136 64.9073 135.869 65.0133 134.704 64.9783C132.856 64.9223 131.009 64.8443 129.162 64.7553C125.622 64.5863 122.059 64.9332 118.516 64.9492C115.484 64.9622 112.424 64.7263 109.392 64.9773C107.371 65.1453 104.856 65.8113 104.035 68.2573C103.491 69.8773 103.726 72.5433 105.056 73.6023C106.967 75.8743 109.089 75.3993 111.72 75.5593C113.799 75.6853 115.895 75.6183 117.988 75.5163C118.319 75.8563 118.934 75.8443 119.173 75.4553C119.886 75.4183 120.598 75.3832 121.308 75.3512C121.386 75.3592 121.461 75.3533 121.537 75.3403C121.637 75.3363 121.738 75.3292 121.838 75.3252C122.989 75.2782 124.146 75.2622 125.305 75.2472C125.439 75.9242 126.511 75.9322 126.74 75.2252C128.682 75.1922 130.623 75.1272 132.541 74.8852C134.981 74.5772 138.257 74.4032 139.767 71.6962C140.847 69.7612 139.776 66.7033 138.173 65.6123ZM106.358 72.5452C106.175 72.5102 106.021 72.4463 105.881 72.3693C105.832 72.3283 105.782 72.2983 105.731 72.2763C104.446 71.3493 105.263 68.5502 106.321 67.5102L106.476 72.5922C106.437 72.5752 106.404 72.5532 106.358 72.5452ZM107.996 73.7743C107.999 73.7393 108.014 73.7143 108.013 73.6773C107.942 71.3723 107.872 69.0682 107.801 66.7642C108.123 66.6762 108.455 66.6213 108.786 66.5783C108.625 69.0673 108.694 71.5392 108.971 74.0182C108.636 73.9552 108.307 73.8783 107.996 73.7743ZM110.468 74.1832C110.469 74.1442 110.482 74.1093 110.477 74.0683C110.172 71.5413 110.126 69.0172 110.3 66.4802C110.327 66.4802 110.356 66.4783 110.383 66.4783C110.807 66.4723 111.23 66.4703 111.653 66.4653C111.612 66.5513 111.583 66.6493 111.578 66.7633C111.464 69.2623 111.636 71.7293 112.057 74.1853C111.53 74.2043 110.996 74.2092 110.468 74.1832ZM113.566 74.0943C113.138 71.6833 112.972 69.2683 113.084 66.8143C113.09 66.6703 113.056 66.5543 113.004 66.4513C113.506 66.4473 114.008 66.4483 114.51 66.4473C114.707 68.9363 114.905 71.4253 115.102 73.9143C115.104 73.9313 115.112 73.9422 115.114 73.9582C114.644 73.9992 114.124 74.0493 113.566 74.0943ZM116.599 73.8673C116.403 71.3953 116.207 68.9253 116.011 66.4533C116.577 66.4583 117.143 66.4623 117.711 66.4773C117.716 66.4773 117.72 66.4773 117.725 66.4773C117.659 68.9313 117.676 71.3833 117.747 73.8363C117.363 73.8443 116.981 73.8513 116.599 73.8673ZM120.619 73.7772C120.163 73.7902 119.706 73.8002 119.25 73.8072C119.181 71.3792 119.165 68.9522 119.23 66.5232C119.23 66.5162 119.227 66.5113 119.227 66.5043C119.704 66.5103 120.18 66.5053 120.657 66.5073L120.619 73.7772ZM123.621 73.5823C123.505 73.5933 123.39 73.5983 123.274 73.6103C122.891 73.6523 122.508 73.6832 122.125 73.7082C122.138 71.3092 122.15 68.9103 122.163 66.5113C122.576 66.5103 122.988 66.5052 123.401 66.5022C123.651 68.8592 123.714 71.2173 123.621 73.5823ZM125.414 73.4932C125.32 73.4952 125.225 73.4952 125.13 73.4972C125.212 71.1562 125.132 68.8262 124.897 66.4932C125.048 66.4912 125.2 66.4902 125.351 66.4892C125.295 66.6122 125.259 66.7472 125.277 66.9072C125.539 69.1042 125.57 71.2972 125.414 73.4932ZM127.432 73.5003C127.261 73.4973 127.09 73.4943 126.919 73.4923C127.076 71.1783 127.019 68.8753 126.744 66.5563C126.74 66.5243 126.724 66.5052 126.717 66.4762C126.956 66.4742 127.195 66.4732 127.434 66.4712C127.434 68.8142 127.433 71.1573 127.432 73.5003ZM128.938 73.5182C128.939 71.1662 128.94 68.8133 128.941 66.4613C129.418 66.4593 129.895 66.4643 130.372 66.4653L130.587 73.4993C130.036 73.5183 129.487 73.5212 128.938 73.5182ZM133.225 73.2713C132.922 73.3023 132.62 73.3322 132.323 73.3682C132.245 73.3772 132.166 73.3833 132.088 73.3913C132.018 71.0833 131.947 68.7763 131.876 66.4683C132.387 66.4733 132.898 66.4922 133.409 66.5022L133.185 73.0312C133.182 73.1232 133.204 73.1973 133.225 73.2713ZM135.512 72.9103C135.241 72.9803 134.967 73.0412 134.69 73.0872C134.69 73.0872 134.691 73.0852 134.691 73.0832L134.916 66.5353C135.099 66.5413 135.281 66.5403 135.464 66.5473C135.53 66.5493 135.6 66.5543 135.669 66.5593L135.461 72.6073C135.457 72.7223 135.477 72.8213 135.512 72.9103ZM137.193 72.2103C137.123 72.2553 137.05 72.2873 136.978 72.3273L137.166 66.8632C137.474 66.9912 137.758 67.1703 137.985 67.4233C139.428 69.0313 138.715 71.2423 137.193 72.2103Z" fill="#142A1E"/>
<path d="M185.509 66.0092C184.473 65.3042 183.205 65.4102 182.041 65.3752C180.193 65.3192 178.346 65.2411 176.499 65.1521C172.959 64.9821 169.396 65.3302 165.853 65.3452C162.821 65.3592 159.761 65.1221 156.729 65.3731C154.708 65.5401 152.193 66.2071 151.372 68.6531C150.828 70.2731 151.063 72.9391 152.393 73.9981C154.304 76.2691 156.425 75.7951 159.056 75.9541C160.276 76.0281 161.502 76.0351 162.729 76.0071C162.896 76.0491 163.067 76.0491 163.217 75.9941C165.205 75.9361 167.197 75.8021 169.175 75.7211C172.729 75.5761 176.341 75.7271 179.878 75.2821C182.318 74.9741 185.594 74.8012 187.104 72.0942C188.184 70.1582 187.113 67.0992 185.509 66.0092ZM153.34 72.8232C153.299 72.8042 153.256 72.7871 153.217 72.7651C153.168 72.7241 153.118 72.6942 153.067 72.6722C151.861 71.8022 152.506 69.2852 153.463 68.1172C153.373 69.6852 153.334 71.2532 153.34 72.8232ZM154.845 73.9822C154.804 71.7352 154.856 69.4922 155.013 67.2492C155.014 67.2292 155.006 67.2162 155.006 67.1982C155.259 67.1222 155.52 67.0671 155.782 67.0231C155.652 69.5321 155.884 72.0001 156.477 74.4381C155.899 74.3411 155.343 74.2022 154.845 73.9822ZM158.067 74.5891C157.398 72.0531 157.144 69.4991 157.297 66.8851C157.439 66.8811 157.582 66.8762 157.719 66.8742C158.167 66.8682 158.614 66.8662 159.061 66.8612C159.106 69.4362 159.151 72.0121 159.196 74.5881C158.821 74.5981 158.443 74.6011 158.067 74.5891ZM160.7 74.5052C160.655 71.9522 160.611 69.3991 160.566 66.8461C161.003 66.8431 161.44 66.8441 161.877 66.8431C161.821 69.3631 161.882 71.8771 162.049 74.3901C161.625 74.4281 161.178 74.4682 160.7 74.5052ZM165.048 67.0912L164.803 74.2381C164.383 74.2491 163.964 74.2582 163.544 74.2792C163.384 71.8052 163.327 69.3302 163.383 66.8492C163.938 66.8542 164.492 66.8591 165.048 66.8731C165.065 66.8731 165.083 66.8732 165.101 66.8742C165.077 66.9432 165.051 67.0082 165.048 67.0912ZM167.049 74.1942C166.803 74.1982 166.557 74.2032 166.311 74.2062L166.554 67.1422C166.557 67.0502 166.535 66.9741 166.513 66.8991C166.749 66.9021 166.984 66.8992 167.22 66.9002C167.272 69.3352 167.215 71.7652 167.049 74.1942ZM170.589 74.0092C169.913 74.0832 169.236 74.1262 168.559 74.1542C168.721 71.7401 168.777 69.3251 168.725 66.9061C169.428 66.9061 170.131 66.9002 170.833 66.8962L170.589 74.0092ZM173.151 73.8832C172.801 73.8852 172.451 73.8912 172.1 73.9042L172.341 66.8872C172.62 66.8852 172.9 66.8822 173.179 66.8802C173.156 66.9532 173.131 67.0262 173.131 67.1162C173.139 69.3722 173.145 71.6282 173.151 73.8832ZM175.153 73.9021C174.988 73.8991 174.822 73.8971 174.657 73.8941C174.651 71.6521 174.645 69.4092 174.638 67.1672C174.638 67.0542 174.613 66.9561 174.577 66.8681C174.837 66.8651 175.097 66.8682 175.358 66.8662L175.123 73.7181C175.12 73.7881 175.141 73.8421 175.153 73.9021ZM177.509 73.8102C177.51 73.8432 177.526 73.8671 177.53 73.8981C177.217 73.9051 176.905 73.9151 176.593 73.9151C176.604 73.8661 176.626 73.8261 176.628 73.7691L176.865 66.8622C177.123 66.8622 177.382 66.8651 177.64 66.8651C177.461 69.1791 177.417 71.4912 177.509 73.8102ZM179.66 73.7651C179.444 73.7911 179.229 73.7981 179.013 73.8171C178.923 71.4981 178.968 69.1852 179.148 66.8712C179.349 66.8722 179.55 66.8812 179.751 66.8832L180.408 73.3511C180.422 73.4851 180.466 73.5882 180.525 73.6722C180.235 73.7012 179.945 73.7311 179.66 73.7651ZM181.734 73.5292C181.833 73.3842 181.895 73.2102 181.874 73.0002C181.668 70.9712 181.462 68.9422 181.256 66.9132C181.651 66.9212 182.045 66.9271 182.44 66.9371C182.41 67.0121 182.381 67.0891 182.377 67.1831C182.273 69.1961 182.304 71.2032 182.47 73.2112C182.475 73.2782 182.502 73.3292 182.521 73.3872C182.26 73.4432 181.998 73.4912 181.734 73.5292ZM184.529 72.6072C184.342 72.7262 184.148 72.8241 183.953 72.9161C183.811 71.0231 183.784 69.1321 183.883 67.2351C183.886 67.1701 183.867 67.1212 183.857 67.0642C184.404 67.1782 184.941 67.3951 185.321 67.8201C186.764 69.4281 186.051 71.6392 184.529 72.6072Z" fill="#142A1E"/>
<path d="M222.518 242.549V242.096C222.518 241.137 222.19 240.223 221.613 239.38C220.968 237.795 219.938 236.365 218.7 235.285C217.013 232.708 212.282 232.129 208.837 232.324C208.622 186.103 208.413 139.883 208.299 93.6624C208.299 93.6164 208.29 93.5764 208.286 93.5324C208.536 93.4424 208.776 93.3414 208.991 93.2144C209.25 93.0624 209.346 92.8484 209.348 92.6354C212.031 90.7374 213.742 87.8884 213.742 84.7054V50.5774C213.742 46.5534 211.004 43.0674 207.026 41.3604C206.466 41.2514 205.902 41.0584 205.348 40.7664C204.409 40.5034 203.421 40.3334 202.399 40.2694C202.122 28.1434 200.811 9.53936 187.606 4.79936C180.279 2.16936 171.558 2.83836 163.9 2.45836C155.041 2.01836 146.182 1.56536 137.322 1.14436C102.857 -0.492635 67.822 -1.45062 33.917 6.06438C27.892 7.39938 20.775 9.18937 17.097 14.6414C15.151 17.5254 14.82 20.9144 14.563 24.2914C14.153 29.6694 13.831 35.0554 13.467 40.4374C7.858 41.3754 3.615 45.5634 3.615 50.5774V84.7044C3.615 89.9934 8.336 94.3593 14.4 94.9653C14.416 95.6563 14.431 96.3473 14.447 97.0383C14.589 97.0503 14.729 97.0774 14.871 97.0994C13.998 142.258 13.246 187.182 17.072 232.182C15.248 232.143 13.507 232.308 11.697 232.689C11.501 232.73 11.343 232.802 11.215 232.894C8.026 233.486 4.585 234.726 2.412 236.616C1.222 237.652 0.583999 239.047 0.279999 240.563C0.0989988 241.058 0 241.571 0 242.097V266.668C0 270.673 5.534 273.941 12.435 274.097C13.884 274.293 15.29 274.386 16.474 274.427C17.748 274.559 19.021 274.69 20.303 274.792C21.746 274.906 22.851 274.829 24.087 274.693C26.23 274.919 28.425 274.838 30.69 274.823C35.386 274.793 40.041 274.518 44.7 274.112H64.101C65.681 274.208 67.303 274.178 68.905 274.112H127.101C130.752 274.188 134.4 274.29 138.036 274.436C151.071 274.958 164.158 275.171 177.199 275.295C179.465 275.317 181.738 275.224 184.011 275.065C184.195 275.2 184.415 275.308 184.709 275.334C189.778 275.792 194.851 275.407 199.923 275.167C205.1 274.921 210.628 275.191 215.743 274.375C218.912 273.869 220.552 272.084 221.357 269.734C222.097 268.797 222.52 267.761 222.52 266.668V264.56C224.818 257.908 223.989 248.89 222.518 242.549ZM3.245 263.878C3.132 264.028 3.036 264.192 2.951 264.365C2.887 263.958 2.86 263.549 2.85 263.137C2.98 263.386 3.11 263.635 3.245 263.878ZM2.452 267.461C2.607 267.719 2.76 267.977 2.9 268.234C3.026 268.466 3.142 268.705 3.256 268.944C3.284 269.044 3.32 269.14 3.354 269.236C2.905 268.684 2.595 268.088 2.452 267.461ZM16.701 29.1774C16.986 24.9754 16.722 20.0744 18.943 16.3504C22.289 10.7414 30.259 9.35837 36.105 8.11537C51.05 4.93537 66.289 3.37937 81.544 2.78337C111.984 1.59337 142.502 3.86538 172.893 5.37538C181.667 5.81238 190.928 6.01538 195.233 15.0524C198.858 22.6634 199.714 31.8624 199.926 40.2384H85.064C83.637 40.0654 82.209 39.9234 80.771 39.8854C76.317 39.7704 71.859 40.2524 67.401 40.1744C65.417 40.1394 63.433 40.1704 61.451 40.2374H25.681C25.613 40.2234 25.551 40.2024 25.471 40.2034C25.189 40.2054 24.911 40.2174 24.636 40.2374H15.95C16.201 36.5514 16.451 32.8644 16.701 29.1774ZM118.81 42.1464C118.809 42.1364 118.802 42.1274 118.801 42.1174H148.378C141.488 42.3924 134.543 42.1984 127.65 42.1984C124.708 42.1984 121.748 42.2804 118.81 42.1464ZM5.932 85.8064C6.078 86.1654 6.223 86.5234 6.355 86.8814C6.542 87.3864 6.707 87.9084 6.874 88.4324C6.4 87.6204 6.076 86.7384 5.932 85.8064ZM17.344 96.8483C17.378 96.8373 17.412 96.8264 17.446 96.8154C17.443 96.2854 17.44 95.7524 17.437 95.2254C19.222 95.4754 20.995 95.7794 22.787 95.9884C24.622 96.2024 25.877 95.9334 27.639 95.6344C27.841 95.6004 27.972 95.5144 28.069 95.4124C31.902 95.4024 35.742 95.1864 39.581 95.1924C45.967 95.2024 52.353 95.1894 58.74 95.1884C65.18 95.1874 71.622 95.1533 78.061 95.1893C82.235 95.2123 86.359 95.4074 90.494 95.3254C90.179 96.9674 90.599 99.4454 90.599 100.545C90.599 105.998 90.725 111.436 90.822 116.887C90.914 122.021 90.845 127.369 91.4 132.465C91.84 136.499 94.293 139.58 97.296 141.639C99.584 143.207 102.088 144.06 104.677 144.498C104.447 148.956 108.322 152.686 112.854 152.141C116.298 151.726 120.667 148.019 119.158 144.383C119.9 144.201 120.629 143.981 121.323 143.672C124.641 142.193 127.22 140.066 129.332 136.843C131.461 133.593 131.99 129.445 132.047 125.509C136.044 126.099 140.082 125.862 144.113 125.866C148.388 125.869 152.729 126.139 156.939 125.131C159.346 124.554 163.89 123.369 164.511 120.142C165.068 117.249 163.093 114.438 160.822 113.378C157.802 111.968 154.101 112.506 150.925 112.504C146.13 112.501 141.33 113.132 136.542 113.432C134.96 113.531 133.378 113.633 131.797 113.745C131.661 107.514 131.306 101.257 131.075 95.0454H197.863C197.982 95.2544 198.209 95.4174 198.568 95.4194C200.413 95.4294 202.017 95.2714 203.445 94.9034C203.739 94.8634 204.03 94.8174 204.318 94.7604V95.0934C204.568 95.1504 204.811 95.2554 205.035 95.4284C205.284 95.6204 205.492 95.9044 205.626 96.2214C205.696 96.2184 205.767 96.2114 205.837 96.2084C205.947 139.101 206.135 181.994 206.334 224.887C202.823 224.884 199.311 224.882 195.8 224.879C195.699 216.372 195.598 207.864 195.497 199.357C195.482 198.071 193.482 198.067 193.497 199.357C193.598 207.864 193.699 216.371 193.8 224.878C175.092 224.864 156.385 224.85 137.678 224.836C138.014 224.256 138.328 223.664 138.625 223.075C140.068 220.211 141.187 216.908 141.986 213.229C141.998 213.23 142.008 213.234 142.02 213.235C142.377 213.259 142.719 213.296 143.057 213.332C143.627 213.394 144.215 213.456 144.851 213.456C144.875 213.456 144.9 213.456 144.924 213.456C145.308 213.453 145.691 213.453 146.075 213.454C147.052 213.457 148.063 213.456 149.063 213.402C151.664 213.26 154.185 212.735 156.624 212.227C160.743 211.368 163.701 208.468 164.953 204.062C165.462 202.271 165.718 200.405 165.966 198.6C166.037 198.084 166.108 197.57 166.184 197.058C166.557 194.556 166.585 192.285 166.271 190.113C165.744 186.464 165.021 181.467 160.526 179.449C158.247 178.425 155.307 178.375 152.734 178.399C150.091 178.428 147.222 178.632 143.961 179.023C143.819 179.036 143.679 179.051 143.538 179.065C143.539 178.913 143.542 178.76 143.542 178.608C143.542 176.737 143.537 174.867 143.532 172.997C143.528 171.326 143.524 169.655 143.523 167.984C143.655 167.798 143.744 167.606 143.744 167.401C143.744 166.641 142.78 166.019 141.21 165.508C140.721 165.184 140.215 164.86 139.625 164.628C138.119 164.032 135.985 163.68 133.901 163.68C133.871 163.68 133.841 163.68 133.811 163.68C132.5 163.689 131.183 163.661 129.866 163.635C129.021 163.619 128.177 163.603 127.337 163.595C126.621 163.588 125.925 163.442 125.187 163.286C124.687 163.181 124.169 163.072 123.646 163.012C122.985 162.936 122.324 162.965 121.685 162.994C121.376 163.008 121.067 163.022 120.76 163.024C119.303 163.032 117.846 163.026 116.389 163.018C113.132 163 109.764 162.984 106.453 163.167C105.506 163.219 104.57 163.31 103.635 163.399C103.528 163.409 103.419 163.419 103.311 163.43C101.923 163.493 100.479 163.571 99.029 163.669L98.568 163.662C96.174 163.622 93.698 163.584 91.293 164.296C90.455 164.544 89.557 164.708 88.688 164.866C87.328 165.114 85.921 165.371 84.632 165.962C84.167 166.174 83.371 166.636 83.271 167.34C83.232 167.614 83.296 167.842 83.408 168.034C83.37 168.138 83.341 168.25 83.339 168.381L83.305 170.795C83.224 176.349 83.14 182.092 83.631 187.728C83.743 189.01 83.901 190.363 84.113 191.863C84.226 192.663 84.28 193.481 84.332 194.272C84.383 195.047 84.436 195.85 84.544 196.645C84.741 198.083 84.817 199.576 84.89 201.02C84.969 202.561 85.05 204.156 85.277 205.704C86.141 211.577 88.167 217.515 90.696 221.587L91.087 222.222C91.976 223.669 92.893 225.152 94.048 226.264C69.11 228.001 44.09 228.223 19.125 226.923C15.777 183.598 16.503 140.332 17.344 96.8483ZM129.576 95.0444C129.808 101.292 130.167 107.59 130.301 113.858C129.828 113.895 129.355 113.924 128.883 113.966C127.209 114.115 124.009 115.202 122.446 114.29C122.42 114.275 122.394 114.267 122.368 114.255C122.074 113.367 121.69 112.526 121.201 111.768C120.657 110.197 119.731 108.793 118.49 107.907C115.979 106.116 112.731 106.149 109.858 107.265C109.781 107.279 109.703 107.287 109.627 107.308C109.289 107.401 108.955 107.562 108.632 107.76C107.684 108.08 106.829 108.619 106.221 109.376C106.177 109.431 106.137 109.493 106.093 109.55C105.303 110.253 104.623 111.046 104.107 111.9C102.692 114.247 102.088 117.175 102.628 119.877C102.776 120.619 103.041 121.286 103.38 121.901C104.316 124.993 106.585 127.37 110.021 128.148C114.128 129.079 119.41 127.808 121.699 123.666C122.323 124.108 123.078 124.119 123.822 124.216C126.078 124.512 128.311 124.855 130.551 125.267C130.511 129.179 129.988 133.264 127.728 136.399C125.721 139.183 123.224 141.316 120.114 142.375C119.366 142.629 118.593 142.807 117.807 142.941C117.636 142.932 117.465 142.96 117.309 143.022C114.727 143.394 112.017 143.264 109.492 143.231C108.407 143.216 107.321 143.154 106.245 143.031C106.098 142.971 105.934 142.951 105.765 142.964C102.914 142.582 100.146 141.724 97.682 139.941C95.994 138.72 94.519 137.157 93.637 135.113C92.7 132.94 92.883 130.629 92.772 128.292C92.574 124.133 92.392 120.009 92.298 115.844C92.209 111.89 92.097 107.945 92.097 103.99C92.097 102.149 92.148 100.295 92.093 98.4554C92.081 98.0694 91.793 95.5134 91.976 95.3904C92.023 95.3584 92.047 95.3164 92.084 95.2794C93.295 95.2324 94.507 95.1624 95.723 95.0454L129.576 95.0444ZM131.363 123.726C129.652 123.411 127.966 123.053 126.241 122.844C125.719 122.78 123.98 122.798 123.02 122.517C123.005 122.142 122.787 121.785 122.491 121.688C123.014 119.831 123.116 117.936 122.836 116.161C124.877 116.599 127.481 115.756 129.36 115.6C133.186 115.284 137.019 115.092 140.849 114.834C144.806 114.567 148.702 114.176 152.67 114.181C155.586 114.185 159.814 113.531 161.991 116.244C166.193 121.481 157.155 123.566 154.111 123.959C150.495 124.426 146.805 124.192 143.172 124.192C139.227 124.192 135.27 124.446 131.363 123.726ZM111.541 150.201C108.606 150.038 106.706 147.484 106.675 144.752C107.61 144.838 108.55 144.889 109.491 144.903C111.904 144.938 114.559 145.078 117.101 144.767C118.759 147.737 114.096 150.342 111.541 150.201ZM144.4 180.427C144.932 180.417 145.464 180.407 146 180.383C146.165 180.375 146.303 180.307 146.419 180.215C150.127 179.937 153.914 179.737 157.519 180.287C159.852 180.642 161.668 181.81 162.77 183.664C163.623 185.101 163.94 186.886 164.247 188.611L164.4 189.455C165.16 193.49 164.481 197.678 163.655 201.971C162.724 206.81 160.339 209.704 156.566 210.576C154.283 211.103 151.568 211.66 148.753 211.794C147.801 211.839 146.827 211.833 145.886 211.836L145.108 211.835C144.922 211.835 144.734 211.842 144.546 211.849C144.141 211.864 143.761 211.876 143.397 211.83C143.216 211.807 143.042 211.773 142.868 211.74C142.683 211.705 142.493 211.682 142.305 211.657C142.468 210.779 142.612 209.878 142.74 208.96C142.759 208.961 142.773 208.97 142.792 208.97C144.827 208.967 146.681 208.826 148.459 208.541C150.033 208.289 152.052 207.921 153.711 207.307C153.994 207.203 154.283 207.106 154.573 207.009C155.713 206.628 156.892 206.236 157.742 205.343C158.683 204.353 159.306 202.951 159.593 201.175C159.794 199.936 159.775 198.674 159.758 197.453C159.753 197.122 159.748 196.792 159.748 196.462C159.747 195.984 159.754 195.503 159.762 195.023C159.781 193.751 159.8 192.438 159.67 191.149C159.45 188.977 158.802 185.91 155.729 184.348C154.227 183.586 152.257 183.509 150.506 183.499L149.043 183.5C147.222 183.5 145.348 183.5 143.515 183.66C143.501 182.678 143.508 181.686 143.522 180.72C143.523 180.632 143.523 180.543 143.524 180.455C143.815 180.445 144.108 180.432 144.4 180.427ZM131.487 228.137C131.222 228.122 130.976 228.231 130.796 228.436C127.729 229.728 124.414 229.687 121.195 229.63C119.834 229.604 118.485 229.605 117.132 229.596C115.38 229.587 113.567 229.572 111.782 229.643C110.039 229.725 108.43 229.367 106.726 229C106.15 228.876 105.569 228.751 104.977 228.641C102.372 228.158 100.421 227.542 98.454 226.585C97.563 226.152 96.642 225.704 95.828 225.097C95.022 224.496 94.524 223.721 93.948 222.824C93.808 222.605 93.665 222.383 93.514 222.158C90.836 218.168 89.007 213.651 87.583 207.512C87.095 205.409 86.971 203.215 86.851 201.094C86.79 200.013 86.727 198.895 86.617 197.79C86.446 196.075 86.253 194.371 86.059 192.665C85.905 191.308 85.751 189.948 85.608 188.583C85.05 183.25 85.025 177.769 85.001 172.468C84.996 171.345 84.989 170.222 84.979 169.099C85.047 169.096 85.114 169.111 85.18 169.091C85.47 169.347 85.789 169.526 86.026 169.638C87.684 170.424 89.556 170.875 91.59 170.979C91.718 170.985 91.845 170.987 91.973 170.994C92.964 171.098 93.962 171.256 94.935 171.424C96.317 171.663 97.746 171.91 99.171 171.97C100.345 172.019 101.537 172.119 102.69 172.217C104.317 172.353 105.998 172.493 107.673 172.496C109.088 172.675 110.535 172.737 111.972 172.737C113.596 172.737 115.209 172.659 116.747 172.584C117.379 172.554 118.002 172.523 118.615 172.499C120.461 172.425 122.835 172.29 125.279 171.919C127.784 171.732 130.498 171.433 133.602 171C134.786 170.835 135.944 170.573 137.077 170.309C137.166 170.303 137.248 170.284 137.328 170.252C137.416 170.231 137.508 170.212 137.596 170.191C138.429 169.995 139.264 169.798 140.111 169.632C140.239 169.607 140.379 169.584 140.526 169.56C140.85 169.507 141.239 169.438 141.617 169.322C141.619 170.599 141.621 171.876 141.624 173.153L141.632 176.626C141.633 177.552 141.611 178.491 141.587 179.435C141.539 181.384 141.489 183.401 141.662 185.333C141.706 185.827 141.779 186.313 141.852 186.796C141.965 187.542 142.072 188.247 142.074 188.986C142.076 189.752 142.056 190.517 142.035 191.283C142.016 191.991 141.996 192.698 141.995 193.405C141.992 194.903 141.87 196.412 141.751 197.872C141.668 198.893 141.585 199.916 141.539 200.948C141.25 207.452 140.453 212.53 139.03 216.928C137.797 220.748 135.671 226.051 131.487 228.137ZM105.459 231.049C106.327 231.212 107.193 231.376 108.043 231.571C109.088 231.812 110.158 231.881 111.224 231.881C111.923 231.881 112.621 231.852 113.309 231.822C113.988 231.794 114.663 231.765 115.33 231.765L123.395 231.766C123.892 231.766 124.375 231.762 124.852 231.751C124.612 231.776 124.371 231.8 124.125 231.823C123.836 231.85 123.546 231.878 123.253 231.91C120.472 232.218 117.256 232.527 114.306 232.278C113.099 232.176 111.873 232.147 110.687 232.118C109.202 232.082 107.666 232.045 106.172 231.865L105.859 231.828C104.485 231.667 102.775 231.466 101.792 230.639C101.592 230.47 101.414 230.286 101.244 230.095C102.63 230.508 104.065 230.786 105.459 231.049ZM98.367 165.447C99.251 165.465 100.135 165.483 101.021 165.461C102.08 165.434 103.136 165.311 104.158 165.193C105.007 165.094 105.885 164.993 106.748 164.948C109.79 164.791 112.894 164.799 115.893 164.811L118.154 164.816C118.749 164.816 119.36 164.79 119.977 164.764C121.227 164.709 122.519 164.654 123.706 164.828C124.114 164.888 124.519 164.974 124.924 165.061C125.461 165.176 126.015 165.295 126.578 165.352C127.191 165.415 127.807 165.389 128.403 165.365C128.698 165.353 128.993 165.341 129.286 165.34C131.034 165.329 132.82 165.399 134.487 165.468C134.582 165.472 134.704 165.479 134.822 165.486C135.926 165.626 136.91 165.774 137.783 165.923C138.56 166.118 139.339 166.395 139.992 166.788L140.077 166.838C140.721 167.216 141.005 167.402 141.13 167.491C140.994 167.597 140.595 167.762 139.467 167.949C139.343 167.97 139.249 167.986 139.198 167.998L139.093 168.023C138.384 168.189 137.697 168.342 137.006 168.498C136.353 168.34 135.688 168.14 135.041 167.939C133.61 167.496 132.131 167.037 130.66 167.029C129.816 166.92 128.967 166.846 128.118 166.775C127.754 166.745 127.383 166.711 127.007 166.675C126.178 166.598 125.328 166.518 124.489 166.479C123.282 166.28 122.046 166.248 120.852 166.218C120.497 166.208 120.141 166.199 119.787 166.186C118.527 166.141 117.296 166.113 116.165 166.284H115.937C115.658 166.281 115.355 166.282 115.09 166.292C113.773 166.186 112.682 166.138 111.641 166.156C110.947 166.167 110.251 166.156 109.555 166.147C108.226 166.131 106.849 166.114 105.49 166.224C104.503 166.305 103.515 166.456 102.559 166.603C101.592 166.75 100.592 166.904 99.605 166.981C98.014 167.106 96.421 167.402 94.881 167.688L94.827 167.698C94.687 167.713 94.547 167.728 94.408 167.744L94.368 167.741C92.438 167.662 90.432 167.945 88.996 168.486C88.867 168.534 88.762 168.613 88.671 168.703C88.375 168.646 88.098 168.589 87.835 168.532C87.71 168.491 87.584 168.452 87.458 168.411L87.323 168.367C86.416 168.072 86.047 167.918 86.093 167.322C86.146 167.308 86.198 167.295 86.249 167.282C86.4 167.243 86.541 167.206 86.662 167.168C87.205 166.997 87.752 166.91 88.331 166.819C88.64 166.77 88.951 166.721 89.261 166.66C89.963 166.519 90.646 166.343 91.325 166.168C92.617 165.833 93.839 165.518 95.164 165.454C96.227 165.404 97.315 165.427 98.367 165.447ZM150.025 185.092C151.729 185.093 153.66 185.08 155.062 185.854C158.132 187.55 158.071 191.116 158.017 194.261C158.01 194.668 158.003 195.065 158.004 195.445C158.005 195.873 158.019 196.335 158.034 196.818C158.133 200.057 158.257 204.089 154.627 205.258C150.284 206.655 146.565 207.316 142.941 207.342C143.099 205.878 143.183 204.394 143.254 202.953C143.33 201.402 143.409 199.8 143.593 198.247C143.969 195.066 143.991 191.768 143.982 188.928C143.979 188.087 143.861 187.269 143.746 186.478C143.674 185.978 143.611 185.466 143.568 184.953C145.328 185.099 147.117 185.098 148.855 185.096L150.025 185.092ZM43.096 264.066C43.117 264.055 43.138 264.044 43.159 264.033C43.461 263.951 43.761 263.858 44.063 263.774C44.142 263.893 44.243 264.001 44.369 264.09C43.945 264.09 43.52 264.077 43.096 264.066ZM19.584 232.709C19.459 231.251 19.352 229.792 19.236 228.334C44.615 229.65 70.052 229.405 95.401 227.583C95.51 227.575 95.604 227.546 95.686 227.504C96.504 228.036 97.381 228.523 98.296 228.954C98.483 229.22 98.667 229.488 98.843 229.759C99.416 230.643 100.008 231.557 100.952 232.233C101.216 232.422 101.502 232.577 101.8 232.71L19.584 232.709ZM63.648 236.377C62.559 236.355 61.469 236.325 60.379 236.29H82.922C76.462 236.45 70.014 236.505 63.648 236.377ZM190.257 252.566C190.267 252.536 190.28 252.508 190.289 252.479C190.643 252.455 190.997 252.436 191.351 252.409C191.378 252.53 191.404 252.65 191.432 252.77C191.04 252.701 190.649 252.633 190.257 252.566ZM200.449 236.539C200.046 236.441 199.641 236.362 199.234 236.291H201.036C200.839 236.37 200.638 236.445 200.449 236.539ZM206.182 231.61C206.098 231.885 205.933 232.144 205.725 232.367C203.962 232.37 202.181 232.515 200.369 232.709H128.507C128.71 232.624 128.913 232.545 129.116 232.447C130.22 231.914 130.975 231.31 131.644 230.39C132.757 229.901 133.774 229.308 134.658 228.588C135.48 227.919 136.171 227.111 136.783 226.24C155.793 226.254 174.804 226.268 193.815 226.283C193.815 226.306 193.816 226.328 193.816 226.351C193.831 227.637 195.831 227.641 195.816 226.351C195.816 226.329 195.816 226.307 195.815 226.284C199.323 226.286 202.831 226.289 206.338 226.292C206.343 227.433 206.348 228.575 206.353 229.716C206.371 229.815 206.385 229.915 206.385 230.016C206.385 230.553 206.34 231.094 206.182 231.61ZM205.97 92.2623C205.436 92.0953 204.79 92.2614 204.489 92.7574C203.009 92.8424 201.479 92.8114 200.465 92.8514C197.308 92.9764 194.141 92.7654 190.98 92.9304C184.766 93.2544 178.499 93.0774 172.274 93.0764C159.83 93.0764 147.386 93.0704 134.942 93.0684C128.841 93.0674 122.886 92.5314 116.769 92.8004C112.556 92.9854 108.333 93.0474 104.118 93.1654H26.83C25.824 93.3374 24.81 93.4254 23.805 93.3674C23.533 93.3514 23.283 93.2764 23.059 93.1654H15.84C14.022 93.1654 12.32 92.7463 10.849 92.0253C10.698 91.9303 10.546 91.8364 10.415 91.7314C9.119 90.6924 8.921 89.0694 8.434 87.6984C7.96 86.3624 7.334 85.0534 6.874 83.7194C6.256 81.9284 6.303 80.1284 6.302 78.2804C6.299 74.8164 6.492 71.3004 6.167 67.8484C5.583 61.6474 5.934 55.0754 7.353 48.9654C7.638 47.7384 7.883 46.4264 8.509 45.2884C9.512 43.4634 11.449 43.1504 13.638 42.8314C15.819 42.5134 18.035 42.5604 20.231 42.3584C20.787 42.3074 21.319 42.2174 21.845 42.1184H22.392C22.567 42.0634 22.759 42.0304 22.971 42.0284C23.056 42.0274 23.141 42.0264 23.226 42.0254C23.772 42.0594 24.291 42.0864 24.752 42.0854C26.754 42.0814 28.955 42.2464 30.965 42.3684C34.966 42.6124 38.714 42.3844 42.702 42.1304C42.798 42.1244 42.893 42.1234 42.989 42.1184H50.048C50.704 42.1274 51.359 42.1274 52.014 42.1184H87.838C89.361 42.3304 90.886 42.5124 92.421 42.5544C96.407 42.6624 100.37 42.7894 104.372 42.7894C105.58 42.7894 106.801 42.7624 108.027 42.7334C111.482 43.4054 115.281 43.4134 118.67 43.5954C124.356 43.9014 130.173 43.6064 135.871 43.6064C147.3 43.6064 158.742 43.2634 170.155 42.7514C175.336 42.5184 180.537 42.4284 185.727 42.4344C188.229 42.4374 190.789 42.2624 193.284 42.3764C196.057 42.5024 199.636 42.3984 202.22 43.1994C204.629 43.9464 207.825 45.2604 209.269 47.0494C210.354 48.3944 210.865 49.8694 211.117 51.4094C211.132 51.4554 211.152 51.4994 211.166 51.5454C211.469 52.5294 211.473 53.4634 211.357 54.4294C211.463 58.7064 210.947 63.0654 211.462 67.3174C211.485 67.5054 211.499 67.6984 211.52 67.8884V81.0194C211.453 81.6954 211.378 82.3654 211.294 83.0274C210.95 85.7154 209.77 87.8014 208.148 90.0844C207.497 90.9974 206.771 91.7073 205.97 92.2623Z" fill="#142A1E"/>
<path d="M44.6278 51.4634C44.3148 51.4534 44.1058 51.5974 43.9778 51.7954C36.3968 51.1524 30.3198 57.0094 28.9818 63.6624C28.3908 66.6024 28.7868 69.2374 29.9268 71.5044C29.9088 71.6194 29.9128 71.7454 29.9618 71.8854C34.2888 84.3284 50.5128 87.7954 58.9518 77.2504C68.3568 65.4994 57.7888 51.8904 44.6278 51.4634ZM30.7508 64.1004C31.9568 57.7184 38.1328 51.8194 45.7788 53.7564C46.0968 53.8374 46.3558 53.7624 46.5508 53.6194C52.8418 56.0364 57.7638 59.6584 57.0828 66.5094C56.3808 73.5774 50.2828 80.0504 41.8068 77.9624C34.5108 76.1634 29.4218 71.1364 30.7508 64.1004ZM58.2208 75.5074C52.2338 83.9894 40.6148 83.5634 34.5218 76.5784C36.4448 77.8894 38.7548 78.8944 41.3208 79.5494C50.2218 81.8194 57.3398 75.5864 58.7168 67.9964C59.5258 63.5394 58.3618 60.1474 55.9128 57.4894C60.9208 61.8164 62.9948 68.7434 58.2208 75.5074Z" fill="#142A1E"/>
<path d="M88.1699 175.993L88.0649 175.796C87.9249 175.535 87.6209 175.397 87.3129 175.45C87.0019 175.504 86.7719 175.729 86.7279 176.023C86.3209 178.748 86.6499 181.574 86.9689 184.306C87.0379 184.902 87.1079 185.494 87.1679 186.079C87.2009 186.399 87.3869 186.657 87.6769 186.785C87.7989 186.839 87.9299 186.865 88.0589 186.865C88.2499 186.865 88.4369 186.808 88.5869 186.698C88.8179 186.528 88.9299 186.257 88.8949 185.955C88.5139 182.669 88.1949 179.696 88.1659 176.631C88.2729 176.434 88.2779 176.192 88.1699 175.993Z" fill="#142A1E"/>
<path d="M90.925 182.915C90.892 182.538 90.602 182.266 90.236 182.266C89.841 182.278 89.541 182.559 89.509 182.947C89.379 184.565 89.741 186.247 90.651 188.24C90.791 188.546 91.05 188.737 91.362 188.763C91.385 188.765 91.409 188.766 91.432 188.766C91.71 188.766 91.98 188.626 92.136 188.399C92.308 188.147 92.322 187.83 92.174 187.529C91.475 186.11 91.077 184.645 90.925 182.915Z" fill="#142A1E"/>
<path d="M134.626 220.76C134.724 220.8 134.823 220.819 134.919 220.819C135.202 220.819 135.459 220.653 135.584 220.362C136.337 218.621 137.072 216.741 137.349 214.79C137.656 212.629 137.536 210.409 137.378 208.522C137.346 208.141 137.032 207.893 136.642 207.902C136.268 207.93 136.004 208.231 136.028 208.602C136.148 210.486 136.212 212.504 135.867 214.502C135.613 215.971 135.079 217.319 134.512 218.747C134.389 219.057 134.267 219.365 134.147 219.677C133.963 220.156 134.245 220.605 134.626 220.76Z" fill="#142A1E"/>
<path d="M133.421 215.821C133.012 215.803 132.69 216.12 132.677 216.518C132.63 218.08 132.184 219.458 131.692 220.848C131.604 221.097 131.647 221.349 131.811 221.537C131.956 221.704 132.179 221.799 132.41 221.799C132.465 221.799 132.52 221.794 132.574 221.782C132.85 221.726 133.068 221.533 133.157 221.264C133.725 219.529 134.08 218.127 134.091 216.505C134.093 216.123 133.805 215.829 133.421 215.821Z" fill="#142A1E"/>
<path d="M191.425 222.686C191.315 219.686 191.204 216.686 191.094 213.686C191.047 212.403 189.047 212.397 189.094 213.686C189.204 216.686 189.315 219.686 189.425 222.686C189.472 223.969 191.472 223.975 191.425 222.686Z" fill="#142A1E"/>
<path d="M21.6929 120.355C21.4979 113.909 21.5479 107.464 21.8419 101.022C21.8839 100.117 20.4759 100.119 20.4349 101.022C20.1409 107.464 20.0909 113.909 20.2859 120.355C20.3129 121.259 21.7209 121.263 21.6929 120.355Z" fill="#142A1E"/>
<path d="M27.7322 123.692C27.4502 120.485 27.6812 117.342 28.4512 114.215C28.6682 113.336 27.3112 112.961 27.0942 113.841C26.2942 117.089 26.0312 120.358 26.3242 123.692C26.4042 124.587 27.8122 124.595 27.7322 123.692Z" fill="#142A1E"/>
<path d="M93.486 154.27C94.333 155.977 98.294 155.623 97.622 157.773C97.351 158.64 98.709 159.01 98.979 158.148C99.537 156.362 98.569 154.903 96.885 154.377C95.409 153.916 94.492 153.705 94.559 152.053C94.58 151.533 94.709 151.021 94.732 150.501C94.784 149.352 94.589 148.475 93.838 147.599C93.247 146.911 92.256 147.91 92.843 148.594C94.137 150.102 92.623 152.53 93.486 154.27Z" fill="#142A1E"/>
<path d="M122.15 156.53C122.73 153.981 126.355 154.053 127.348 151.674C128.312 149.363 126.51 146.142 128.732 144.384C129.442 143.823 128.44 142.833 127.737 143.389C125.637 145.051 126.476 147.341 126.285 149.642C125.979 153.333 121.551 152.829 120.793 156.156C120.592 157.037 121.949 157.414 122.15 156.53Z" fill="#142A1E"/>
<path d="M129.271 160.205C129.781 160.946 131.001 160.244 130.486 159.495C129.985 158.767 132.006 158.134 132.342 157.913C132.776 157.627 133.143 157.249 133.44 156.826C134.135 155.839 134.32 154.709 134.152 153.532C134.025 152.639 132.669 153.019 132.795 153.906C132.922 154.799 132.638 155.715 132.009 156.368C131.419 156.981 130.588 157.108 129.915 157.587C129.065 158.192 128.64 159.287 129.271 160.205Z" fill="#142A1E"/>
</svg>
