<svg width="201" height="178" viewBox="0 0 201 178" fill="none" xmlns="http://www.w3.org/2000/svg">
<path d="M5.53251 61.7293C4.63442 61.7479 3.76657 61.7412 2.92897 61.7093C2.32614 61.7218 1.88379 61.4602 1.60193 60.9245C1.41026 60.5838 1.29419 59.4354 1.25371 57.4793C1.20839 55.2894 1.26687 52.1682 1.42916 48.1155C1.59119 44.0505 1.93981 41.8648 2.47501 41.5583L3.75763 41.0887C4.12441 40.9704 4.53541 40.9065 4.99061 40.897C5.92561 40.8777 7.19889 41.1467 8.81046 41.7042C11.0171 42.4708 14.8713 43.4495 20.373 44.6403C21.2444 44.5238 21.6733 44.1334 21.6595 43.469C21.6567 43.3337 21.6354 43.1926 21.5954 43.0458C21.5931 42.935 21.369 42.8104 20.923 42.672C15.1867 40.846 12.1027 39.9129 11.6711 39.8726C10.508 39.5767 9.363 39.2619 8.23608 38.9283C4.96654 37.9498 2.77992 36.6658 1.67624 35.0763C0.927719 33.9964 0.540221 32.8167 0.513741 31.5372C0.491336 30.4546 0.707432 29.2993 1.16203 28.0714C2.13146 25.5528 3.96976 23.0901 6.67693 20.6833C8.46513 19.0709 10.6009 17.599 13.0841 16.2675C15.5794 14.9236 19.3299 14.1629 24.3356 13.9854C27.8295 13.9131 32.0295 14.6508 36.9355 16.1985C37.1574 16.2186 37.2729 16.4439 37.2818 16.8745C37.2774 17.2561 37.209 17.8175 37.0766 18.5587C35.904 27.9124 34.698 32.6759 33.4584 32.8493L32.7768 32.9188C23.5064 29.8244 18.17 28.2917 16.7675 28.3208C16.4476 28.3274 16.1095 28.6421 15.7532 29.2649C15.756 29.4002 16.3399 29.665 17.505 30.0594C25.5562 32.5267 30.9511 34.8027 33.6897 36.8877C36.5647 39.019 38.1946 41.3545 38.5794 43.8943C38.6622 44.3233 38.7085 44.7778 38.7184 45.2576C37.6961 51.765 32.9568 56.1893 24.5005 58.5305C17.2437 60.5515 10.9211 61.6178 5.53251 61.7293ZM40.7203 61.7026L40.6834 61.7034C40.4866 61.7075 40.3677 61.6115 40.3267 61.4154C39.8307 58.2625 39.4541 54.6395 39.1971 50.5462C39.1196 49.1817 39.0661 47.7858 39.0366 46.3587C38.8011 34.9788 39.994 24.5231 42.6152 14.9917C42.6965 14.7562 42.8602 14.6359 43.1062 14.6308L43.3088 14.6082C43.6779 14.6005 44.1785 14.7009 44.8105 14.9094C45.5409 15.1158 46.3534 15.419 47.2478 15.819C48.5395 16.383 49.6977 17.036 50.7223 17.7779C51.7469 18.5198 52.2849 19.2409 52.3363 19.9414C52.256 22.0108 52.0614 24.5011 51.7524 27.4121C51.1811 33.1102 50.9273 37.4971 50.9909 40.5727C50.9953 40.7819 51.0153 41.4523 51.051 42.5839C51.099 43.7152 51.3636 44.9036 51.8448 46.149C51.8707 46.21 51.9267 46.2396 52.0128 46.2379C52.4926 46.2279 53.4404 45.636 54.8561 44.4621C55.8486 43.6538 56.9311 42.7329 58.1036 41.6994L58.1944 41.6237C59.4876 40.4769 60.8543 39.3163 62.2947 38.1418C63.5417 37.1437 64.6288 36.4443 65.5559 36.0435C65.6292 36.0174 65.7028 36.0036 65.7766 36.0021C66.3179 35.9909 66.7841 37.4028 67.1751 40.2378C67.4672 42.4595 67.6384 44.7822 67.6885 47.2058C67.773 51.2903 67.4796 54.0595 66.8081 55.5134C66.5258 56.1469 66.151 56.4685 65.6835 56.4782C65.5112 56.4818 65.3196 56.4427 65.1087 56.3609C64.1894 55.9491 63.0408 55.7575 61.6629 55.786C61.2446 55.7947 60.4213 55.861 59.1931 55.9848C57.9772 56.1085 56.2434 56.4828 53.9916 57.1079C50.6019 58.0519 46.8313 59.33 42.68 60.9421C41.5819 61.4079 40.9287 61.6614 40.7203 61.7026ZM82.0128 59.5927C81.2747 59.6079 80.5715 59.5302 79.9033 59.3594C77.924 58.8711 76.1907 57.787 74.7036 56.1069C73.2286 54.4143 71.9983 52.3598 71.0129 49.9432C70.0396 47.5141 69.3033 44.9446 68.8041 42.2349C68.3201 39.6603 68.0527 37.1488 68.002 34.7006C67.9402 31.711 68.1692 29.097 68.689 26.8585C69.3473 24.1741 70.4633 21.8986 72.037 20.0322C73.6107 18.1657 75.4755 16.6871 77.6315 15.5963C80.5671 14.1202 83.7266 13.3471 87.1098 13.2771C88.8322 13.2414 90.54 13.3968 92.2334 13.7433C94.7792 14.2445 97.0752 15.1632 99.1213 16.4993C101.541 18.0616 103.32 20.1602 104.458 22.7951C105.104 24.2587 105.445 25.8825 105.482 27.6663C105.563 31.5786 104.171 36.2906 101.307 41.8023C99.555 45.1863 97.4907 48.3244 95.1136 51.2168C93.072 53.6714 90.9225 55.6667 88.665 57.2026C86.4196 58.7261 84.2022 59.5227 82.0128 59.5927ZM85.1148 41.7681C85.5946 41.7582 86.0962 41.6124 86.6196 41.3308C87.9468 40.6387 89.1773 39.1363 90.311 36.8236C90.842 35.7172 91.0984 34.7272 91.0803 33.8537C91.0786 33.7676 91.0478 33.4729 90.9882 32.9695C90.9408 32.4658 90.6462 31.9058 90.1042 31.2893C89.0589 30.1417 87.7058 29.585 86.0449 29.6194C85.2822 29.6352 84.541 29.8044 83.8215 30.127C83.0044 30.4885 82.358 31.0742 81.8825 31.884C81.4069 32.6939 81.1817 33.7078 81.207 34.9258L81.2108 35.1103C81.3875 37.7036 81.9364 39.5446 82.8574 40.6333C83.5257 41.4071 84.2782 41.7854 85.1148 41.7681ZM118 60.731C116.733 60.7572 116.018 60.3905 115.854 59.6308C108.789 31.038 105.255 16.6862 105.252 16.5755C105.246 16.2679 105.369 15.9638 105.621 15.6632C106.185 14.9746 107.374 14.4269 109.187 14.0202C110.473 13.7228 111.781 13.5603 113.109 13.5328C115.73 13.4786 117.228 13.8907 117.603 14.7691C118.623 18.2681 119.648 22.0131 120.678 26.0041C122.202 31.8435 123.27 35.8338 123.88 37.975C123.881 38.0365 123.858 38.0863 123.809 38.1242C123.773 38.1496 123.755 38.1684 123.755 38.1807L123.792 38.1799C124.156 37.9139 124.749 33.8893 125.573 26.1059C125.716 24.6875 125.827 23.8052 125.906 23.459C126.017 22.9028 126.602 22.6138 127.66 22.5919C128.029 22.5842 128.455 22.6185 128.936 22.6947C129.911 22.8099 130.913 23.0415 131.941 23.3895C132.896 23.7143 133.71 24.1159 134.385 24.5943C135.059 25.0603 135.464 25.5812 135.599 26.1569C135.729 27.1142 135.843 28.4411 135.94 30.1376C136.036 31.8218 136.156 33.1486 136.299 34.1179C136.3 34.1672 136.252 34.2297 136.155 34.3055C136.155 34.3178 136.162 34.3239 136.174 34.3236C136.649 34.0799 137.99 28.9813 140.196 19.0278C140.715 16.7401 141.042 15.3179 141.178 14.7612C141.25 14.649 141.627 14.4319 142.31 14.1101C142.992 13.776 143.828 13.4263 144.817 13.0613C146.857 12.3052 148.566 11.9129 149.944 11.8844C151.248 11.8574 151.909 12.2745 151.927 13.1357C151.929 13.2587 149.221 27.7889 143.801 56.7262C143.655 57.4185 143.223 57.9505 142.505 58.3223C141.494 58.8478 140.177 59.1274 138.553 59.161C137.335 59.1862 136.164 59.1058 135.04 58.9199C133.384 58.5972 132.5 58.1232 132.389 57.4978C132.283 56.5522 132.08 55.0549 131.779 53.0057C131.478 50.9442 131.169 49.1105 130.853 47.5048L130.569 46.2737C130.132 47.7843 129.439 49.9833 128.49 52.8707C128.12 54.0353 127.717 55.3606 127.28 56.8466C127.14 57.2433 126.664 57.6901 125.849 58.187C125.035 58.6838 124.06 59.1471 122.924 59.5768C121.691 60.0454 120.485 60.378 119.308 60.5747C118.83 60.6707 118.394 60.7228 118 60.731Z" fill="#995837"/>
<path d="M39.2486 117.713C36.1011 117.842 32.9559 117.275 29.8129 116.012C27.8601 115.243 25.9966 114.1 24.2226 112.584C20.2019 109.14 17.7858 103.981 16.9743 97.1048C16.8597 96.1119 16.7812 95.0991 16.7388 94.0663L16.7063 93.2733C16.6409 87.4753 17.9491 82.5878 20.6309 78.6107C23.7532 73.9628 28.8138 71.2306 35.8125 70.414C36.5231 70.3232 37.2534 70.2625 38.0034 70.2317C38.4829 70.2121 38.969 70.2045 39.4618 70.2089C40.1062 70.3056 40.5907 72.5087 40.9152 76.8182C41.1001 79.2245 41.225 81.2206 41.2901 82.8067C41.3168 83.4583 40.9958 84.038 40.3269 84.5457C39.6698 85.0407 38.8227 85.5557 37.7855 86.0909L37.5687 86.2106C36.1805 86.8957 34.836 87.7452 33.5352 88.7591C32.6198 89.5602 31.9506 90.5114 31.5278 91.6125C31.0264 92.9015 30.8048 94.253 30.8628 95.667C30.9132 96.8965 31.1224 98.0948 31.4905 99.262C31.9261 100.574 32.5324 101.695 33.3095 102.623C34.2554 103.767 35.3431 104.314 36.5726 104.263C37.8882 104.209 39.0407 103.632 40.0301 102.533C40.9944 101.422 41.6875 100.303 42.1093 99.1775C42.2806 98.8503 42.4646 98.6826 42.6613 98.6746C42.9318 98.6635 43.1896 98.9423 43.4346 99.5111C43.6791 100.068 43.8837 100.854 44.0485 101.869C44.2568 103.043 44.3896 104.33 44.4471 105.732C44.5586 108.449 44.3972 110.82 43.963 112.846C43.3453 115.802 42.1237 117.398 40.2984 117.633C39.9674 117.671 39.6175 117.698 39.2486 117.713ZM58.3143 114.585C57.5766 114.615 56.872 114.552 56.2005 114.394C54.2116 113.946 52.4567 112.898 50.9358 111.248C49.4267 109.586 48.1551 107.557 47.1208 105.161C46.0983 102.752 45.3101 100.198 44.756 97.4987C44.2198 94.9344 43.9015 92.4289 43.8012 89.9822C43.6787 86.9946 43.8545 84.3764 44.3288 82.1279C44.9325 79.4306 46.0021 77.133 47.5376 75.235C49.0732 73.337 50.9076 71.8208 53.0409 70.6865C55.946 69.151 59.0891 68.314 62.4702 68.1753C64.1915 68.1047 65.9022 68.2255 67.6022 68.5375C70.1577 68.9869 72.4718 69.8588 74.5447 71.1531C76.996 72.666 78.817 74.728 80.0079 77.3394C80.6832 78.7896 81.0574 80.406 81.1305 82.1888C81.2908 86.0986 79.995 90.8378 77.243 96.4065C75.5605 99.8254 73.5603 103.005 71.2424 105.945C69.251 108.44 67.1425 110.479 64.9166 112.06C62.7026 113.629 60.5018 114.47 58.3143 114.585ZM61.0538 96.701C61.5333 96.6813 62.0319 96.5254 62.5495 96.2333C63.8624 95.5144 65.0621 93.9873 66.1487 91.652C66.6571 90.5351 66.8934 89.5401 66.8576 88.6672C66.854 88.5811 66.8173 88.2871 66.7475 87.785C66.6899 87.2824 66.3839 86.7284 65.8295 86.1231C64.7612 84.9969 63.3971 84.4679 61.7372 84.5359C60.9749 84.5672 60.2374 84.7514 59.5246 85.0885C58.715 85.4665 58.0806 86.0652 57.6216 86.8846C57.1626 87.7039 56.958 88.7222 57.008 89.9394L57.0155 90.1238C57.2449 92.713 57.831 94.5425 58.7739 95.6122C59.4578 96.3724 60.2178 96.7353 61.0538 96.701ZM92.4688 114.514C92.186 114.526 91.7898 114.474 91.2802 114.36C89.5924 114.047 87.84 113.509 86.023 112.746C83.555 111.727 82.2998 110.701 82.2574 109.668C82.6164 97.3993 82.9889 83.9599 83.375 69.3501C83.409 68.9792 83.9425 68.6248 84.9755 68.2869C86.0208 67.9484 87.3757 67.6527 89.0402 67.3997C91.3288 67.0472 93.8624 66.814 96.6411 66.7C103.957 66.4 107.648 67.0615 107.714 68.6844L107.719 68.7951C107.669 69.0804 107.63 69.4761 107.601 69.9822C107.39 72.6387 107.226 74.4989 107.11 75.5628C106.623 79.6223 105.765 81.6773 104.536 81.7277L104.499 81.7292C101.993 81.5857 99.5828 81.5244 97.2684 81.5454L93.5185 81.5514C93.0764 81.5819 92.7786 81.8281 92.6251 82.2901C92.5368 82.54 92.4985 82.8064 92.5101 83.0891C92.5207 83.3473 92.5505 83.6232 92.5995 83.9168C92.828 84.6833 93.2086 85.1049 93.7413 85.1816C94.8513 85.2223 96.1638 85.2423 97.6786 85.2418C99.1934 85.2412 100.512 85.2672 101.635 85.3197C102.204 85.3702 102.508 85.8812 102.548 86.8525C102.56 87.1476 102.549 87.4744 102.514 87.833C102.239 90.4305 101.513 92.9973 100.336 95.5333C99.6798 96.9519 99.0371 97.7973 98.4079 98.0694C98.0671 98.1696 97.7185 98.227 97.362 98.2416C96.4644 98.2784 95.3184 97.9621 93.9239 97.2927C93.8099 99.3171 93.72 101.63 93.6543 104.231C93.5419 108.399 93.3933 111.681 93.2083 114.077C93.1579 114.35 92.9114 114.496 92.4688 114.514Z" fill="#995837"/>
<path d="M119.103 113.422C118.82 113.434 118.424 113.383 117.914 113.268C116.226 112.955 114.474 112.418 112.657 111.655C110.189 110.635 108.934 109.609 108.891 108.576C109.25 96.3075 109.623 82.8682 110.009 68.2583C110.043 67.8875 110.576 67.5331 111.609 67.1951C112.655 66.8567 114.01 66.561 115.674 66.308C117.963 65.9555 120.496 65.7223 123.275 65.6083C130.591 65.3083 134.282 65.9697 134.348 67.5927L134.353 67.7033C134.303 67.9886 134.264 68.3843 134.235 68.8905C134.024 71.547 133.86 73.4072 133.743 74.4711C133.257 78.5306 132.399 80.5855 131.17 80.636L131.133 80.6375C128.627 80.4939 126.217 80.4327 123.902 80.4537L120.152 80.4597C119.71 80.4902 119.413 80.7364 119.259 81.1983C119.171 81.4483 119.132 81.7146 119.144 81.9974C119.155 82.2556 119.184 82.5315 119.233 82.8251C119.462 83.5916 119.843 84.0132 120.375 84.0898C121.485 84.1305 122.798 84.1506 124.313 84.15C125.827 84.1495 127.146 84.1755 128.269 84.2279C128.838 84.2785 129.142 84.7895 129.182 85.7608C129.194 86.0558 129.183 86.3827 129.148 86.7412C128.873 89.3388 128.147 91.9056 126.97 94.4416C126.314 95.8602 125.671 96.7055 125.042 96.9777C124.701 97.0778 124.352 97.1353 123.996 97.1499C123.098 97.1867 121.952 96.8704 120.558 96.2009C120.444 98.2254 120.354 100.538 120.288 103.14C120.176 107.307 120.027 110.589 119.842 112.986C119.792 113.259 119.545 113.404 119.103 113.422Z" fill="#995837"/>
<path d="M161.319 108.768C160.876 108.802 160.137 108.888 159.1 109.026C150.903 110.116 145.248 110.719 142.135 110.835C140.814 110.887 140.126 110.711 140.073 110.309C139.885 102.55 139.484 95.3788 138.869 88.7945C138.481 84.7619 137.992 80.5256 137.402 76.0856C137.029 73.2801 136.614 70.3933 136.157 67.4251C136.116 66.7477 136.823 66.0889 138.277 65.4486C139.73 64.7961 141.564 64.2169 143.781 63.711C146.01 63.2035 148.198 62.807 150.345 62.5215C152.591 62.2352 154.565 62.0968 156.267 62.1063C158.71 62.1786 159.99 62.66 160.109 63.5505L161.073 77.2386C161.098 77.707 160.842 77.9769 160.305 78.0483C159.338 78.0529 156.909 77.1035 153.018 75.2003C151.61 74.5062 150.325 73.9012 149.164 73.3853C147.899 72.8336 147.053 72.5861 146.626 72.6429L147.068 80.442C147.133 80.9299 148.131 81.1075 150.062 80.9748C150.087 80.9715 150.106 80.9752 150.119 80.9858C150.745 80.9274 151.34 80.8792 151.906 80.8412L152.805 80.7402C153.331 80.7697 153.774 81.3996 154.137 82.6301C154.544 83.9166 154.857 85.3832 155.076 87.0299C155.511 90.299 155.446 92.0517 154.881 92.2882L148.555 94.284L148.558 94.3023C148.559 94.3145 148.574 94.3312 148.601 94.3523C148.629 94.3735 148.664 94.406 148.708 94.45C148.751 94.4939 148.782 94.5455 148.803 94.6049C148.868 95.0928 149.03 95.5181 149.289 95.8809C149.412 96.0631 149.541 96.1453 149.675 96.1274L160.705 90.9922L160.904 91.2265L160.908 91.2631C160.969 91.4412 161.147 92.3548 161.441 94.004C161.647 95.1807 161.845 96.4887 162.037 97.9281C162.963 104.893 162.724 108.506 161.319 108.768Z" fill="#995837"/>
<path d="M192.972 101.087C192.538 101.178 191.816 101.359 190.806 101.63C182.818 103.77 177.289 105.099 174.217 105.617C172.913 105.839 172.209 105.754 172.104 105.361C170.915 97.6925 169.59 90.6332 168.129 84.1836C167.223 80.2349 166.191 76.0974 165.031 71.7709C164.299 69.0372 163.514 66.2282 162.677 63.344C162.55 62.6776 163.165 61.9329 164.524 61.11C165.88 60.2752 167.625 59.4637 169.758 58.6755C171.902 57.8841 174.021 57.2081 176.113 56.6474C178.303 56.0732 180.242 55.6808 181.931 55.4702C184.363 55.2262 185.695 55.538 185.927 56.4056L188.653 69.8543C188.738 70.3156 188.519 70.6163 187.996 70.7564C187.037 70.886 184.506 70.2587 180.402 68.8743C178.916 68.3681 177.564 67.9342 176.346 67.5727C175.021 67.1891 174.15 67.0531 173.734 67.1646L175.18 74.8412C175.307 75.3167 176.32 75.3637 178.218 74.9825C178.241 74.9761 178.261 74.9773 178.276 74.986C178.888 74.8473 179.473 74.7225 180.029 74.6116L180.908 74.3953C181.432 74.3566 181.954 74.9239 182.472 76.0971C183.042 77.3203 183.542 78.7341 183.972 80.3387C184.826 83.5241 184.988 85.2705 184.459 85.5779L178.444 88.3749L178.448 88.3927C178.452 88.4046 178.468 88.4192 178.498 88.4366C178.529 88.454 178.568 88.4817 178.616 88.5197C178.665 88.5577 178.703 88.6048 178.731 88.661C178.858 89.1365 179.074 89.5373 179.378 89.8635C179.524 90.0282 179.662 90.093 179.793 90.058L190.066 83.5401L190.293 83.7467L190.303 83.7824C190.386 83.9511 190.68 84.8342 191.185 86.4315C191.541 87.5717 191.907 88.843 192.283 90.2456C194.102 97.0324 194.332 100.646 192.972 101.087Z" fill="#995837"/>
<path d="M70.8839 171.168C67.7392 171.353 64.5844 170.842 61.4194 169.635C59.4532 168.9 57.5698 167.791 55.7691 166.307C51.6878 162.935 49.1804 157.819 48.2467 150.959C48.1145 149.968 48.018 148.957 47.9573 147.925L47.9107 147.133C47.7423 141.337 48.9634 136.427 51.5741 132.403C54.6132 127.7 59.6244 124.878 66.6075 123.937C67.3164 123.834 68.0454 123.76 68.7948 123.716C69.2739 123.688 69.7598 123.672 70.2526 123.667C70.8986 123.753 71.4221 125.947 71.8232 130.25C72.0509 132.653 72.2113 134.646 72.3045 136.231C72.3428 136.882 72.0321 137.467 71.3724 137.987C70.7243 138.493 69.8864 139.023 68.8589 139.577L68.6443 139.7C67.2685 140.41 65.9393 141.283 64.6567 142.32C63.7556 143.137 63.1035 144.1 62.7003 145.209C62.222 146.507 62.0244 147.862 62.1075 149.274C62.1797 150.503 62.4103 151.697 62.799 152.858C63.2579 154.162 63.884 155.272 64.6774 156.186C65.6436 157.313 66.7408 157.84 67.9692 157.768C69.2836 157.69 70.4257 157.093 71.3954 155.976C72.3398 154.848 73.0129 153.718 73.4146 152.584C73.5801 152.254 73.7611 152.083 73.9576 152.072C74.2279 152.056 74.4906 152.33 74.7456 152.894C75 153.447 75.2186 154.229 75.4014 155.241C75.6305 156.411 75.7862 157.696 75.8686 159.096C76.0283 161.811 75.9091 164.185 75.511 166.218C74.946 169.185 73.753 170.802 71.9321 171.069C71.6018 171.113 71.2525 171.146 70.8839 171.168ZM78.2273 169.645L78.1904 169.647C77.9939 169.659 77.8714 169.567 77.823 169.373C77.2073 166.241 76.6931 162.635 76.2805 158.555C76.1511 157.194 76.0445 155.801 75.9607 154.376C75.2922 143.013 76.0862 132.52 78.3427 122.896C78.415 122.657 78.574 122.531 78.8196 122.516L79.0212 122.486C79.3898 122.464 79.8938 122.546 80.5333 122.73C81.271 122.908 82.0944 123.18 83.0035 123.546C84.3157 124.06 85.4979 124.669 86.55 125.371C87.6021 126.074 88.1671 126.774 88.2452 127.472C88.2438 129.543 88.1441 132.039 87.9461 134.959C87.5921 140.675 87.5054 145.068 87.6861 148.139C87.6984 148.348 87.7439 149.017 87.8227 150.147C87.9138 151.275 88.2234 152.453 88.7516 153.679C88.7798 153.739 88.8369 153.766 88.9229 153.761C89.402 153.733 90.3265 153.106 91.6965 151.879C92.6576 151.033 93.7042 150.072 94.8365 148.994L94.9243 148.915C96.1729 147.72 97.4946 146.508 98.8891 145.28C100.097 144.235 101.157 143.495 102.068 143.059C102.14 143.03 102.213 143.013 102.287 143.009C102.828 142.977 103.347 144.37 103.846 147.189C104.222 149.398 104.482 151.712 104.624 154.132C104.864 158.21 104.676 160.989 104.061 162.467C103.803 163.111 103.44 163.447 102.973 163.474C102.801 163.484 102.609 163.452 102.395 163.379C101.46 163.002 100.305 162.854 98.9294 162.935C98.5118 162.96 97.6916 163.057 96.469 163.228C95.2587 163.398 93.5404 163.838 91.3141 164.548C87.9627 165.621 84.2435 167.041 80.1566 168.81C79.077 169.317 78.4339 169.596 78.2273 169.645ZM117.395 163.458C117.014 163.48 116.625 163.478 116.229 163.452C114.447 163.335 112.785 162.847 111.243 161.989C110.032 161.308 109.01 160.481 108.176 159.507C107.341 158.521 106.786 157.462 106.51 156.332C106.026 154.179 105.611 151.941 105.265 149.62C104.904 147.262 104.632 144.523 104.448 141.403C104.169 136.649 104.353 131.498 105 125.95C105.036 125.726 105.325 125.512 105.868 125.307C106.41 125.09 107.108 124.907 107.962 124.759C109.107 124.519 110.299 124.362 111.54 124.289C112.744 124.218 113.848 124.227 114.851 124.316C115.979 124.422 116.628 124.766 116.798 125.348C117.051 126.923 117.234 128.669 117.347 130.585C117.401 131.507 117.438 132.46 117.459 133.445L117.615 136.098C117.68 137.191 117.754 138.241 117.838 139.247C118.008 140.888 118.265 142.211 118.607 143.214C118.949 144.204 119.445 144.681 120.096 144.642C120.995 144.417 121.701 141.737 122.212 136.604C122.431 134.459 122.619 132.408 122.775 130.451C122.897 128.558 123.041 127.021 123.206 125.84C123.334 125.29 123.801 124.844 124.606 124.5C125.581 124.098 126.781 123.855 128.206 123.771C129.766 123.679 131.136 123.808 132.315 124.158C133.232 124.449 133.71 124.92 133.748 125.571L132.056 158.731C132.014 159.054 131.761 159.377 131.3 159.7C130.837 160.01 130.305 160.282 129.702 160.515C128.86 160.872 128.243 161.063 127.85 161.086C127.493 161.107 127.29 161.008 127.241 160.789C127.197 160.681 127.102 160.316 126.954 159.696C126.58 158.153 126.233 156.762 125.914 155.523C125.42 157.192 124.78 158.573 123.994 159.667C122.309 162.034 120.109 163.298 117.395 163.458ZM144.287 168.31C142.923 168.39 141.642 168.398 140.442 168.333C139.082 168.252 138.361 167.944 138.28 167.406L138.24 167.353C138.186 166.432 138.02 164.346 137.742 161.096L137.714 160.616C136.855 150.621 136.239 142.46 135.867 136.134C135.644 132.338 135.499 128.944 135.434 125.953C135.403 123.945 135.756 122.31 136.495 121.046C137.84 118.76 140.079 117.525 143.211 117.341C145.889 117.184 148.654 117.773 151.506 119.109C154.103 120.3 156.22 121.925 157.858 123.986C159.127 125.662 159.816 127.409 159.923 129.227C160.113 132.47 158.364 135.624 154.674 138.688C157.474 139.362 160.03 140.906 162.342 143.322C163.396 144.468 164.228 145.732 164.839 147.113C165.35 148.242 165.639 149.396 165.709 150.575C165.725 150.845 165.728 151.116 165.72 151.388C165.618 153.218 165.117 155.072 164.216 156.949C163.316 158.827 162.05 160.571 160.419 162.184C157.392 165.197 153.528 167.094 148.828 167.876C147.803 168.047 146.289 168.192 144.287 168.31ZM145.825 136.306C147.267 135.469 148.497 134.491 149.516 133.371C150.834 131.888 151.52 130.763 151.574 129.995C151.536 129.357 151.27 128.824 150.777 128.397C150.295 127.957 149.721 127.639 149.057 127.444C148.392 127.249 147.771 127.168 147.193 127.202C145.855 127.281 145.196 127.819 145.218 128.816C145.344 130.128 145.444 131.416 145.519 132.681L145.825 136.306ZM147.62 157.704C149.793 157.132 151.533 156.223 152.84 154.975C154.158 153.714 155.039 152.337 155.481 150.844C155.717 150.029 155.812 149.234 155.766 148.46C155.691 147.183 155.264 146.105 154.485 145.226C153.773 144.442 152.762 143.91 151.451 143.63C150.777 143.484 150.016 143.437 149.169 143.487C148.395 143.532 147.546 143.662 146.621 143.877C146.746 145.373 146.863 146.932 146.97 148.553L147.128 150.91L147.62 157.704Z" fill="#995837"/>
</svg>
